# xmcd CD database file
#
# Track frame offsets:
#	150
#	59109
#	147482
#	219001
#	297417
#
# Disc length: 4457 seconds
#
# Revision: 0
# Processed by: cddbd v1.5.1PL0 Copyright (c) Steve Scherf et al.
# Submitted via: CDex 1.51
#
DISCID=53116705
DTITLE=Ken Vandermark FME Trio - cuts
DYEAR=2005
DGENRE=Jazz
TTITLE0=Other Side Up_Boadas [for Joan Miro]
TTITLE1=Necessary?_Reset_Slip [for Eero Saarinen]
TTITLE2=Static (A Hundred Yards) Static [for Antoni Tapies]
TTITLE3=Broken (Sentence) Broken [for Shellac]
TTITLE4=Heavy Light [for Christian Wolff]
EXTD=YEAR: 2005
EXTT0=
EXTT1=
EXTT2=
EXTT3=
EXTT4=
PLAYORDER=
